G04 MADE WITH FRITZING*
G04 WWW.FRITZING.ORG*
G04 DOUBLE SIDED*
G04 HOLES PLATED*
G04 CONTOUR ON CENTER OF CONTOUR VECTOR*
%ASAXBY*%
%FSLAX23Y23*%
%MOIN*%
%OFA0B0*%
%SFA1.0B1.0*%
%ADD10C,0.066000*%
%ADD11C,0.138425*%
%ADD12C,0.076000*%
%ADD13C,0.078639*%
%ADD14C,0.158908*%
%ADD15C,0.065278*%
%ADD16C,0.039370*%
%ADD17C,0.024000*%
%LNCOPPER0*%
G90*
G70*
G54D10*
X153Y2034D03*
X153Y1934D03*
X153Y2134D03*
X153Y2234D03*
X153Y2334D03*
X953Y1934D03*
X953Y1834D03*
X953Y1734D03*
X953Y1634D03*
X953Y1534D03*
X953Y1434D03*
X953Y1334D03*
X953Y1234D03*
X953Y1134D03*
X953Y1034D03*
X953Y934D03*
X953Y834D03*
X153Y1734D03*
G54D11*
X903Y2484D03*
X203Y2484D03*
G54D10*
X153Y1534D03*
X153Y1834D03*
X153Y1334D03*
X153Y1634D03*
X153Y1134D03*
X153Y1434D03*
X153Y934D03*
X153Y1234D03*
X153Y1034D03*
X153Y834D03*
G54D12*
X1736Y2223D03*
G54D11*
X3286Y1058D03*
G54D12*
X1736Y1423D03*
X1736Y2123D03*
X1736Y1223D03*
X1736Y2023D03*
G54D11*
X1761Y1058D03*
G54D12*
X1736Y1923D03*
X1736Y1323D03*
X1736Y1823D03*
G54D11*
X3286Y2508D03*
G54D12*
X1736Y1723D03*
G54D11*
X1761Y2508D03*
G54D12*
X1736Y1623D03*
X1736Y1523D03*
X1736Y2323D03*
G54D13*
X3053Y683D03*
X3153Y434D03*
G54D14*
X2953Y533D03*
G54D15*
X2953Y733D03*
X2953Y334D03*
G54D13*
X2153Y683D03*
X2253Y434D03*
G54D14*
X2053Y533D03*
G54D15*
X2053Y733D03*
X2053Y334D03*
G54D16*
X1476Y1424D03*
X1836Y1520D03*
G54D17*
X3052Y834D02*
X3168Y729D01*
D02*
X3168Y729D02*
X3214Y529D01*
D02*
X3053Y702D02*
X3052Y834D01*
D02*
X3214Y529D02*
X3289Y530D01*
D02*
X3289Y530D02*
X3270Y322D01*
D02*
X3270Y322D02*
X3022Y385D01*
D02*
X3022Y385D02*
X2171Y677D01*
D02*
X1755Y1916D02*
X2932Y1468D01*
D02*
X481Y1113D02*
X173Y1132D01*
D02*
X3068Y939D02*
X3386Y770D01*
D02*
X2932Y1468D02*
X3068Y939D01*
D02*
X3345Y115D02*
X2401Y159D01*
D02*
X526Y397D02*
X481Y1113D01*
D02*
X1632Y173D02*
X526Y397D01*
D02*
X2401Y159D02*
X1632Y173D01*
D02*
X3386Y770D02*
X3345Y115D01*
D02*
X1560Y1274D02*
X1220Y400D01*
D02*
X548Y1246D02*
X173Y1234D01*
D02*
X620Y497D02*
X548Y1246D01*
D02*
X1566Y1827D02*
X1560Y1274D01*
D02*
X1220Y400D02*
X620Y497D01*
D02*
X1717Y1823D02*
X1566Y1827D01*
D02*
X1717Y2024D02*
X960Y2084D01*
D02*
X291Y1343D02*
X173Y1335D01*
D02*
X451Y1907D02*
X291Y1343D01*
D02*
X960Y2084D02*
X451Y1907D01*
D02*
X1468Y1426D02*
X972Y1530D01*
D02*
X2151Y702D02*
X2148Y728D01*
X2148Y728D02*
X1839Y1513D01*
G04 End of Copper0*
M02*