G04 MADE WITH FRITZING*
G04 WWW.FRITZING.ORG*
G04 DOUBLE SIDED*
G04 HOLES PLATED*
G04 CONTOUR ON CENTER OF CONTOUR VECTOR*
%ASAXBY*%
%FSLAX23Y23*%
%MOIN*%
%OFA0B0*%
%SFA1.0B1.0*%
%ADD10C,0.066000*%
%ADD11C,0.138425*%
%ADD12C,0.076000*%
%ADD13C,0.078639*%
%ADD14C,0.158908*%
%ADD15C,0.065278*%
%ADD16C,0.039370*%
%ADD17C,0.024000*%
%LNCOPPER1*%
G90*
G70*
G54D10*
X153Y2034D03*
X153Y1934D03*
X153Y2134D03*
X153Y2234D03*
X153Y2334D03*
X953Y1934D03*
X953Y1834D03*
X953Y1734D03*
X953Y1634D03*
X953Y1534D03*
X953Y1434D03*
X953Y1334D03*
X953Y1234D03*
X953Y1134D03*
X953Y1034D03*
X953Y934D03*
X953Y834D03*
X153Y1734D03*
G54D11*
X903Y2484D03*
X203Y2484D03*
G54D10*
X153Y1534D03*
X153Y1834D03*
X153Y1334D03*
X153Y1634D03*
X153Y1134D03*
X153Y1434D03*
X153Y934D03*
X153Y1234D03*
X153Y1034D03*
X153Y834D03*
G54D12*
X1736Y2223D03*
G54D11*
X3286Y1058D03*
G54D12*
X1736Y1423D03*
X1736Y2123D03*
X1736Y1223D03*
X1736Y2023D03*
G54D11*
X1761Y1058D03*
G54D12*
X1736Y1923D03*
X1736Y1323D03*
X1736Y1823D03*
G54D11*
X3286Y2508D03*
G54D12*
X1736Y1723D03*
G54D11*
X1761Y2508D03*
G54D12*
X1736Y1623D03*
X1736Y1523D03*
X1736Y2323D03*
G54D13*
X3053Y683D03*
X3153Y434D03*
G54D14*
X2953Y533D03*
G54D15*
X2953Y733D03*
X2953Y334D03*
G54D13*
X2153Y683D03*
X2253Y434D03*
G54D14*
X2053Y533D03*
G54D15*
X2053Y733D03*
X2053Y334D03*
G54D16*
X1476Y1424D03*
X1836Y1520D03*
G54D17*
X1717Y2324D02*
X1260Y2360D01*
X1260Y2360D02*
X744Y2350D01*
D02*
X744Y2350D02*
X172Y2237D01*
D02*
X1717Y1623D02*
X1308Y1640D01*
X1308Y1640D02*
X1140Y2000D01*
D02*
X954Y2048D02*
X835Y1960D01*
D02*
X1140Y2000D02*
X954Y2048D01*
D02*
X835Y1960D02*
X575Y1755D01*
D02*
X575Y1755D02*
X900Y1376D01*
X900Y1376D02*
X938Y1346D01*
D02*
X260Y1548D02*
X268Y1847D01*
D02*
X268Y1847D02*
X404Y1963D01*
D02*
X173Y1536D02*
X260Y1548D01*
D02*
X404Y1963D02*
X1049Y2162D01*
D02*
X1049Y2162D02*
X1345Y2151D01*
D02*
X1345Y2151D02*
X1723Y1737D01*
D02*
X736Y2261D02*
X943Y2284D01*
D02*
X943Y2284D02*
X1184Y2264D01*
D02*
X1184Y2264D02*
X1717Y2127D01*
D02*
X171Y2041D02*
X736Y2261D01*
D02*
X1717Y1520D02*
X973Y1436D01*
D02*
X1717Y1423D02*
X1484Y1424D01*
D02*
X2235Y433D02*
X1956Y416D01*
X1956Y416D02*
X970Y1023D01*
D02*
X3135Y433D02*
X2412Y416D01*
X2412Y416D02*
X2292Y536D01*
D02*
X2235Y878D02*
X1854Y889D01*
D02*
X1854Y889D02*
X972Y1160D01*
D02*
X2292Y536D02*
X2235Y878D01*
D02*
X972Y1160D02*
X965Y1150D01*
D02*
X1836Y1528D02*
X1812Y2096D01*
X1812Y2096D02*
X1764Y2096D01*
X1764Y2096D02*
X1750Y2109D01*
G04 End of Copper1*
M02*