; NON-PLATED HOLES START AT T1
; THROUGH (PLATED) HOLES START AT T100
M48
INCH
T1C0.065278
T2C0.158908
T3C0.086614
T100C0.098425
T101C0.015748
T102C0.036972
T103C0.039370
%
T1
X029532Y003340
X029532Y007333
X020532Y007333
X020532Y003340
T2
X029532Y005333
X020532Y005333
T3
X002032Y006860
X032876Y010573
X009026Y006837
X017614Y010573
X002036Y024843
X017614Y025077
X009026Y024827
X032877Y025049
T100
X032862Y010575
X009031Y024836
X017612Y025075
X032862Y025075
X002031Y024836
X017612Y010575
T101
X018360Y015199
X014760Y014239
T102
X031531Y004336
X022531Y004336
X021533Y006832
X030533Y006832
T103
X009531Y010336
X009531Y011336
X001531Y012336
X017362Y016225
X001531Y017336
X001531Y021336
X009531Y014336
X001531Y011336
X009531Y018336
X017362Y014225
X017362Y018225
X001531Y018336
X009531Y015336
X001531Y016336
X001531Y009336
X001531Y019336
X001531Y013336
X017362Y022225
X017362Y019225
X009531Y017336
X001531Y020336
X001531Y015336
X001531Y014336
X017362Y012225
X009531Y019336
X017362Y023225
X001531Y023336
X009531Y013336
X017362Y017225
X009531Y016336
X001531Y010336
X009531Y008336
X017362Y013225
X009531Y012336
X001531Y008336
X017362Y021225
X001531Y022336
X009531Y009336
X017362Y020225
X017362Y015225
T00
M30
